# xmcd CD database file
#
# Track frame offsets:
#	150
#	25586
#	49260
#	76394
#	111942
#	145870
#	174853
#	204012
#	229558
#	251842
#	272147
#	315008
#
# Disc length: 4480 seconds
#
# Revision: 1
# Processed by: cddbd v1.5.1PL2 Copyright (c) Steve Scherf et al.
# Submitted via: CDex 1.51
#
DISCID=8f117e0c
DTITLE=Michael Neff Group - Winemoods
DYEAR=2005
DGENRE=Jazz
TTITLE0=You and the Night and the Music
TTITLE1=Nature Boy
TTITLE2=Mare Mesco
TTITLE3=Sad and Lonely
TTITLE4=Comencar de novo
TTITLE5=Outlines
TTITLE6=Besame Mucho
TTITLE7=Dindi
TTITLE8=Akasha
TTITLE9=When it's over
TTITLE10=In Trouble
TTITLE11=But Beautiful
EXTD=YEAR: 2005
EXTT0=
EXTT1=
EXTT2=
EXTT3=
EXTT4=
EXTT5=
EXTT6=
EXTT7=
EXTT8=
EXTT9=
EXTT10=
EXTT11=
PLAYORDER=
